<?xml version="1.0" encoding="utf-8"?>

<!-- Uploaded to: SVG Repo, www.svgrepo.com, Generator: SVG Repo Mixer Tools -->
<svg fill="#000000" height="800px" width="800px" version="1.1" id="Icons" xmlns="http://www.w3.org/2000/svg" xmlns:xlink="http://www.w3.org/1999/xlink" 
	 viewBox="0 0 32 32" xml:space="preserve">
<g>
	<path d="M30,6.5c0-2.2-1.5-4-3.6-4.4C26.3,2,26.1,2,26,2H7.5C4.5,2,2,4.5,2,7.5S4.5,13,7.5,13h10c0.2,0,0.5,0,0.7,0
		c0.6,2.3,2.5,4,4.8,4c2.8,0,5-2.5,5-5.5c0-0.1,0-0.2,0-0.3C29.3,10,30,8.3,30,6.5z M16,9H7C6.4,9,6,8.6,6,8s0.4-1,1-1h9
		c0.6,0,1,0.4,1,1S16.6,9,16,9z M23,15c-1.4,0-2.6-1.1-2.9-2.7c1.6-0.9,2.7-2.5,2.9-4.3c0,0,0,0,0,0c1.7,0,3,1.6,3,3.5
		S24.7,15,23,15z M27.4,8.8C26.5,7.2,25,6.1,23.2,6c0.4-1.1,1.4-1.9,2.6-2C27,4.2,28,5.2,28,6.5C28,7.3,27.8,8.1,27.4,8.8z"/>
	<path d="M16.8,15H7.5c-0.3,0-0.7,0-1-0.1c0.7,1.2,2,2.1,3.5,2.1h8.2C17.7,16.4,17.2,15.7,16.8,15z"/>
	<path d="M24,23h-2c-1.7,0-3,1.3-3,3h-0.6c-1.3,0-2.4-1.1-2.4-2.4V20h2c0.6,0,1-0.4,1-1s-0.4-1-1-1h-6c-0.6,0-1,0.4-1,1s0.4,1,1,1h2
		v3.6c0,2.4,2,4.4,4.4,4.4H19h3c0.6,0,1,0.4,1,1s-0.4,1-1,1h-2.2c0.5,0.6,1.3,1,2.2,1h2c1.7,0,3-1.3,3-3v-2C27,24.3,25.7,23,24,23z"
		/>
</g>
</svg>