<?xml version="1.0" encoding="iso-8859-1"?>
<!-- Uploaded to: SVG Repo, www.svgrepo.com, Generator: SVG Repo Mixer Tools -->
<svg fill="#000000" height="800px" width="800px" version="1.1" id="Layer_1" xmlns="http://www.w3.org/2000/svg" xmlns:xlink="http://www.w3.org/1999/xlink" 
	 viewBox="0 0 512 512" xml:space="preserve">
<g>
	<g>
		<path d="M496.864,445.975V185.921c8.463-9.99,13.583-22.899,13.583-36.986v-14.608l-83.96-83.959H83.96L0,134.325v14.608
			c0,31.599,25.709,57.306,57.307,57.306c21.08,0,39.526-11.449,49.479-28.447c9.953,16.998,28.4,28.447,49.479,28.447
			c21.08,0,39.526-11.449,49.479-28.447c9.953,16.998,28.398,28.447,49.479,28.447s39.526-11.449,49.479-28.447
			c9.953,16.998,28.4,28.447,49.479,28.447s39.526-11.449,49.479-28.447c9.953,16.998,28.4,28.447,49.479,28.447
			c10.193,0,19.765-2.687,28.068-7.373v247.108H312.106V233.033h111.69v197.806h15.657V217.376H296.449v25.052h-98.166
			c-7.922-14.736-20.05-24.008-33.879-24.008s-25.957,9.272-33.879,24.008h-99.21v-33.925H15.658v237.472H0.522v15.658H512v-15.658
			H496.864z M172.232,236.189c11.448,6.252,20.058,25.7,20.058,48.001s-8.611,41.749-20.058,48.001V236.189z M156.575,236.189
			v96.001c-11.448-6.252-20.058-25.7-20.058-48.001C136.517,261.889,145.127,242.44,156.575,236.189z M31.315,258.087h92.993
			c-2.222,7.966-3.449,16.776-3.449,26.102c0,11.408,1.834,22.048,5.086,31.309h-94.63V258.087z M296.449,445.977H31.315v-57.411
			h265.134V445.977z M296.449,372.909H31.315v-41.753h102.336c7.82,11.678,18.633,18.802,30.752,18.802s22.932-7.123,30.752-18.802
			h101.293V372.909z M296.449,315.498h-93.586c3.252-9.261,5.086-19.901,5.086-31.309c0-9.326-1.227-18.137-3.449-26.102h91.949
			V315.498z M228.037,66.024h54.372l12.743,63.716h-79.858L228.037,66.024z M98.958,148.935c0,22.965-18.685,41.649-41.651,41.649
			c-22.966,0-41.65-18.684-41.65-41.649v-3.538h83.301V148.935z M102.354,129.74H26.728l63.716-63.716h50.138L102.354,129.74z
			 M197.917,148.935c-0.001,22.965-18.685,41.649-41.651,41.649c-22.966,0-41.65-18.684-41.65-41.649v-3.538h83.301V148.935z
			 M199.327,129.74h-78.713l38.228-63.716h53.227L199.327,129.74z M296.874,148.935c-0.001,22.965-18.685,41.649-41.651,41.649
			c-22.965,0-41.649-18.684-41.649-41.649v-3.538h83.3V148.935z M298.378,66.024h53.226l38.229,63.716h-78.712L298.378,66.024z
			 M395.833,148.935c-0.001,22.965-18.686,41.649-41.651,41.649c-22.966,0-41.65-18.684-41.65-41.649v-3.538h83.301V148.935z
			 M369.863,66.024h50.139l63.716,63.716h-75.626L369.863,66.024z M494.79,148.935c0,22.965-18.684,41.649-41.65,41.649
			c-22.967,0-41.651-18.684-41.651-41.649v-3.538h83.301V148.935z"/>
	</g>
</g>
</svg>