<?xml version="1.0" ?>
<!DOCTYPE svg  PUBLIC '-//W3C//DTD SVG 1.1//EN'  'http://www.w3.org/Graphics/SVG/1.1/DTD/svg11.dtd'>
<!-- Uploaded to: SVG Repo, www.svgrepo.com, Generator: SVG Repo Mixer Tools -->
<svg fill="#000000" width="800px" height="800px" viewBox="0 0 512 512" enable-background="new 0 0 512 512" id="Take_x5F_exercise" version="1.1" xml:space="preserve" xmlns="http://www.w3.org/2000/svg" xmlns:xlink="http://www.w3.org/1999/xlink">
<g>
<g>
<path d="M269.506,329.877c0-49.125-39.966-89.091-89.091-89.091v10c43.611,0,79.091,35.479,79.091,79.091H269.506z"/>
<path d="M26.241,326.526h81.591v-95.081h40.897v39.425c0,25.222,10.573,49.567,29.008,66.795    c19.394,18.123,30.517,43.186,30.517,68.761v49.02h10v-49.02c0-28.334-12.279-56.061-33.688-76.067    c-16.419-15.344-25.836-37.026-25.836-59.488v-51.302c0-13.647,11.103-24.751,24.75-24.751h60.826    c2.521,0,4.573,2.052,4.573,4.573c0,12.592-10.244,22.836-22.836,22.836h-45.215v10h45.215c8.919,0,17.014-3.579,22.938-9.37    c4.767,4.283,11.001,6.755,17.69,6.755c8.859,0,16.713-4.366,21.536-11.054c4.82,6.688,12.67,11.054,21.524,11.054    c10.951,0,20.372-6.665,24.421-16.148h9.35v97.123c0,9.082-2.871,17.719-8.301,24.971c-9.832,13.121-15.029,28.297-15.029,43.889    v76h10v-76c0-13.412,4.506-26.515,13.033-37.894c6.736-8.997,10.297-19.706,10.297-30.966v-97.123h50.666v7.982h-37.086v10h37.086    v95.081h81.591v-60.294l19.404-23.864V140.713l-19.404-23.864V56.555h-81.591v113.063h-67.899v-26.332    c0-7.083-2.762-13.745-7.771-18.755c-5.002-5.019-11.666-7.782-18.766-7.782c-6.306,0-12.101,2.217-16.658,5.907    c-0.606-6.082-3.267-11.714-7.642-16.073c-5.014-5.015-11.677-7.776-18.761-7.776c-8.851,0-16.697,4.363-21.518,11.049    c-0.832-1.151-1.757-2.248-2.782-3.272c-5.015-5.015-11.673-7.776-18.748-7.776c-13.718,0-25.039,10.463-26.399,23.829    c-4.698-3.813-10.515-5.887-16.661-5.887c-14.633,0-26.537,11.904-26.537,26.537v31.332h10v-31.332    c0-9.118,7.418-16.537,16.537-16.537c4.422,0,8.571,1.72,11.689,4.848c3.118,3.117,4.834,7.269,4.834,11.689h10v-17.943    c0-9.118,7.418-16.536,16.537-16.536c4.404,0,8.55,1.722,11.676,4.848s4.848,7.277,4.848,11.688v12.978h10v-12.978    c0-9.118,7.413-16.536,16.523-16.536c4.413,0,8.563,1.721,11.695,4.854c3.122,3.111,4.842,7.261,4.842,11.683v17.943h10    c0-9.118,7.412-16.537,16.523-16.537c4.422,0,8.571,1.72,11.689,4.848c3.126,3.126,4.848,7.277,4.848,11.689v59.801    c0,9.111-7.419,16.524-16.537,16.524c-9.111,0-16.523-7.413-16.523-16.524v-39.61h-10v39.61c0,9.111-7.419,16.524-16.537,16.524    c-4.468,0-8.61-1.769-11.648-4.802c2.458-4.601,3.856-9.849,3.856-15.419c0-5.957-3.598-11.085-8.731-13.342v-33.68h-10v32.448    h-33.061v-21.445h-10v21.445h-13.607c-13.352,0-24.961,7.573-30.778,18.646h-44.869v-23.845h33.013v-10h-33.013V56.555H26.241    v60.294L6.837,140.713v101.655l19.404,23.864V326.526z M495.163,144.266v94.55l-9.404,11.566V132.699L495.163,144.266z     M414.168,66.555h25.796v216.674h10V66.555h25.795v37.995v173.981v37.995h-25.795v-18.979h-10v18.979h-25.796V213.463v-43.845    V66.555z M404.168,179.618v23.845h-67.909c0.002-0.126,0.01-0.25,0.01-0.376v-23.469H404.168z M149.277,213.463    c-0.354,1.983-0.548,4.021-0.548,6.105v1.877h-40.897v-7.982H149.277z M36.241,66.555h25.795v18.979h10V66.555h25.796v103.063    v43.845v103.063H72.036V99.853h-10v216.674H36.241v-37.995V104.55V66.555z M16.837,238.815v-94.55l9.404-11.565v117.681    L16.837,238.815z"/>
</g>
</g>
</svg>