<?xml version="1.0" encoding="iso-8859-1"?>
<!-- Uploaded to: SVG Repo, www.svgrepo.com, Generator: SVG Repo Mixer Tools -->
<svg fill="#000000" height="800px" width="800px" version="1.1" id="Layer_1" xmlns="http://www.w3.org/2000/svg" xmlns:xlink="http://www.w3.org/1999/xlink" 
	 viewBox="0 0 512 512" xml:space="preserve">
<g transform="translate(0 -1)">
	<g>
		<g>
			<path d="M503.467,495.933h-59.733v-25.6h25.6c4.713,0,8.533-3.82,8.533-8.533v-15.727c0-19.146-15.161-34.734-34.133-35.439
				v-17.101H460.8c4.713,0,8.533-3.82,8.533-8.533s-3.82-8.533-8.533-8.533h-17.067V359.4H460.8c4.713,0,8.533-3.82,8.533-8.533
				s-3.82-8.533-8.533-8.533h-17.067V333.8c0-4.713-3.82-8.533-8.533-8.533s-8.533,3.82-8.533,8.533v8.533h-102.4V333.8
				c0-4.713-3.82-8.533-8.533-8.533s-8.533,3.82-8.533,8.533v8.533h-17.067c-4.713,0-8.533,3.82-8.533,8.533s3.82,8.533,8.533,8.533
				H307.2v17.067h-17.067c-4.713,0-8.533,3.821-8.533,8.533s3.82,8.533,8.533,8.533H307.2v17.101
				c-18.973,0.705-34.133,16.294-34.133,35.439V461.8c0,4.713,3.82,8.533,8.533,8.533h25.6v25.6H128V410.6h93.867
				c5.795,0,9.905-5.653,8.117-11.166l-102.4-315.733c-2.552-7.868-13.683-7.868-16.234,0L8.95,399.434
				c-1.788,5.513,2.322,11.166,8.117,11.166h93.867v85.333H8.533c-4.713,0-8.533,3.821-8.533,8.533S3.82,513,8.533,513h494.933
				c4.713,0,8.533-3.821,8.533-8.533S508.18,495.933,503.467,495.933z M28.805,393.533l90.662-279.54l90.661,279.54H128v-64.732
				l23.101-23.101c3.332-3.332,3.332-8.735,0-12.068c-3.332-3.332-8.735-3.332-12.068,0l-19.566,19.566l-19.566-19.566
				c-3.332-3.332-8.735-3.332-12.068,0c-3.332,3.333-3.332,8.736,0,12.068l23.101,23.101v64.732H28.805z M324.267,410.6v-17.067
				h102.4V410.6H324.267z M426.667,359.4v17.067h-102.4V359.4H426.667z M290.133,446.073c0-10.169,8.237-18.406,18.406-18.406
				h133.854c10.169,0,18.406,8.237,18.406,18.406v7.194H290.133V446.073z M324.267,470.333h102.4v25.6h-102.4V470.333z"/>
			<path d="M339.2,197.267h99.2c17.216,0,30.933-15.026,30.933-33.067c0-16.254-11.134-30.06-25.93-32.636
				c-2.784-33.403-22.927-53.764-50.87-53.764c-18.245,0-33.64,6.953-46.094,18.406c-5.435,4.998-9.5,10.008-12.28,14.233
				c-20.144,2.672-35.493,21.155-35.493,43.248C298.667,177.589,316.633,197.267,339.2,197.267z M339.2,127.174
				c3.174,0,6.085-1.761,7.558-4.572c0.358-0.682,1.227-2.121,2.608-4.06c2.367-3.326,5.247-6.666,8.626-9.773
				c9.503-8.739,20.934-13.901,34.542-13.901c20.236,0,34.133,15.625,34.133,44.8c0,4.713,3.82,8.533,8.533,8.533h3.2
				c7.426,0,13.867,7.055,13.867,16s-6.441,16-13.867,16h-99.2c-12.777,0-23.467-11.707-23.467-26.513
				C315.733,138.881,326.423,127.174,339.2,127.174z"/>
			<path d="M170.667,26.6c18.873,0,34.133,15.26,34.133,34.133c0,4.713,3.821,8.533,8.533,8.533c4.713,0,8.533-3.821,8.533-8.533
				c0-23.584,19.083-42.667,42.667-42.667c4.713,0,8.533-3.821,8.533-8.533S269.246,1,264.533,1
				c-22.298,0-41.715,12.204-51.977,30.293c-9.261-13.16-24.557-21.76-41.89-21.76c-4.713,0-8.533,3.821-8.533,8.533
				S165.954,26.6,170.667,26.6z"/>
		</g>
	</g>
</g>
</svg>