<?xml version="1.0" encoding="iso-8859-1"?>
<!-- Uploaded to: SVG Repo, www.svgrepo.com, Generator: SVG Repo Mixer Tools -->
<svg fill="#000000" height="800px" width="800px" version="1.1" id="Layer_1" xmlns="http://www.w3.org/2000/svg" xmlns:xlink="http://www.w3.org/1999/xlink" 
	 viewBox="0 0 512.116 512.116" xml:space="preserve">
<g transform="translate(0 -1)">
	<g>
		<g>
			<path d="M499.389,366.474l-20.804-24.422c-8.823-10.351-26.428-10.351-35.226,0l-20.983,24.61
				c-12.877,15.095-16.256,36.062-8.832,54.724c6.81,17.067,21.214,28.535,38.793,31.249v34.876c0,4.71,3.823,8.533,8.533,8.533
				c4.719,0,8.533-3.823,8.533-8.533v-34.833c16.529-2.731,30.635-13.542,37.828-29.483
				C515.893,404.037,512.889,382.294,499.389,366.474z"/>
			<path d="M359.114,342.049c-8.815-10.351-26.428-10.351-35.226,0l-20.983,24.619c-12.877,15.087-16.247,36.053-8.823,54.716
				c6.801,17.067,21.214,28.535,38.793,31.249v34.876c0,4.719,3.814,8.533,8.533,8.533s8.533-3.814,8.533-8.533v-34.833
				c16.521-2.731,30.626-13.542,37.82-29.474c8.661-19.157,5.666-40.9-7.842-56.73L359.114,342.049z"/>
			<path d="M409.669,299.081c16.529-2.739,30.635-13.551,37.828-29.483c8.661-19.157,5.658-40.9-7.842-56.721l-20.804-24.431
				c-8.823-10.351-26.428-10.351-35.226,0l-20.984,24.619c-12.877,15.095-16.256,36.062-8.832,54.716
				c6.81,17.067,21.214,28.544,38.793,31.258v34.867c0,4.719,3.823,8.533,8.533,8.533c4.719,0,8.533-3.814,8.533-8.533V299.081z"/>
			<path d="M290.202,299.081c16.529-2.739,30.635-13.551,37.828-29.483c8.661-19.157,5.658-40.9-7.842-56.721l-20.804-24.431
				c-8.823-10.351-26.428-10.351-35.226,0l-20.983,24.619c-12.877,15.095-16.256,36.062-8.832,54.716
				c6.81,17.067,21.214,28.544,38.793,31.258v34.867c0,4.719,3.823,8.533,8.533,8.533c4.719,0,8.533-3.814,8.533-8.533V299.081z"/>
			<path d="M239.648,342.049c-8.815-10.351-26.428-10.351-35.226,0l-20.983,24.619c-12.877,15.087-16.247,36.053-8.823,54.716
				c6.801,17.067,21.214,28.535,38.793,31.249v34.876c0,4.719,3.814,8.533,8.533,8.533s8.533-3.814,8.533-8.533v-34.833
				c16.521-2.731,30.626-13.542,37.82-29.474c8.661-19.157,5.666-40.9-7.842-56.73L239.648,342.049z"/>
			<path d="M256,154.606h247.467c4.71,0,8.533-3.814,8.533-8.533V26.606c0-4.719-3.823-8.533-8.533-8.533H256
				c-141.158,0-256,114.842-256,256v179.2c0,4.719,3.814,8.533,8.533,8.533H128c4.71,0,8.533-3.814,8.533-8.533v-179.2
				C136.533,208.195,190.123,154.606,256,154.606z M443.733,77.806H460.8c4.71,0,8.533,3.814,8.533,8.533
				c0,4.719-3.823,8.533-8.533,8.533h-17.067c-4.719,0-8.533-3.814-8.533-8.533C435.2,81.621,439.014,77.806,443.733,77.806z
				 M352.324,77.806h36.48c4.719,0,8.533,3.814,8.533,8.533c0,4.719-3.814,8.533-8.533,8.533h-36.48
				c-4.719,0-8.533-3.814-8.533-8.533C343.791,81.621,347.605,77.806,352.324,77.806z M261.103,77.806h36.489
				c4.71,0,8.533,3.814,8.533,8.533c0,4.719-3.823,8.533-8.533,8.533h-36.489c-4.71,0-8.533-3.814-8.533-8.533
				C252.57,81.621,256.393,77.806,261.103,77.806z M76.8,410.606c0,4.719-3.823,8.533-8.533,8.533c-4.719,0-8.533-3.814-8.533-8.533
				v-17.067c0-4.719,3.814-8.533,8.533-8.533c4.71,0,8.533,3.814,8.533,8.533V410.606z M76.8,338.815
				c0,4.719-3.823,8.533-8.533,8.533c-4.719,0-8.533-3.814-8.533-8.533v-36.48c0-4.719,3.814-8.533,8.533-8.533
				c4.71,0,8.533,3.814,8.533,8.533V338.815z M86.724,215.116c-3.797,10.906-6.554,22.272-8.166,33.766
				c-0.606,4.267-4.25,7.347-8.439,7.347c-0.393,0-0.794-0.026-1.195-0.085c-4.676-0.657-7.927-4.966-7.27-9.626
				c1.766-12.604,4.787-25.062,8.951-37.018c1.553-4.463,6.4-6.81,10.871-5.257C85.922,205.798,88.269,210.662,86.724,215.116z
				 M133.862,142.933c-8.474,7.893-16.222,16.657-23.031,26.052c-1.664,2.295-4.275,3.524-6.921,3.524
				c-1.732,0-3.49-0.529-4.992-1.63c-3.823-2.765-4.668-8.098-1.903-11.913c7.458-10.283,15.94-19.874,25.216-28.518
				c3.439-3.217,8.849-3.029,12.058,0.427C137.506,134.322,137.318,139.724,133.862,142.933z M165.239,109.473
				c-2.091-4.224-0.358-9.344,3.866-11.435c11.392-5.623,23.373-10.155,35.627-13.466c4.54-1.203,9.233,1.476,10.462,6.016
				c1.229,4.548-1.459,9.233-6.016,10.47c-11.179,3.012-22.11,7.151-32.503,12.279c-1.22,0.597-2.509,0.887-3.78,0.887
				C169.745,114.226,166.724,112.486,165.239,109.473z"/>
		</g>
	</g>
</g>
</svg>