<?xml version="1.0" encoding="utf-8"?>
<!-- Uploaded to: SVG Repo, www.svgrepo.com, Generator: SVG Repo Mixer Tools -->
<svg fill="#000000" version="1.1" id="Layer_1" xmlns="http://www.w3.org/2000/svg" xmlns:xlink="http://www.w3.org/1999/xlink" 
	 width="800px" height="800px" viewBox="0 0 260 249" enable-background="new 0 0 260 249" xml:space="preserve">
<path d="M195.02,228.07l-3.99-52.89l15.88-28.26c2.4,0.5,4.79,0.7,7.29,0.7c19.78,0,35.86-16.08,35.86-35.86
	c0-5.1-1.1-9.89-2.9-14.18c3-4,4.7-9.19,4.7-14.79c0-14.78-11.99-26.77-26.77-26.77c-4.2,0-8.19,1-11.79,2.7
	c-0.76-2.99-2.15-5.75-4.01-8.16c-0.18,5.77-1.67,11.42-4.38,16.45c1.6,4.8,2.4,9.89,2.4,15.08c0,26.47-21.58,48.05-48.04,48.05
	c-1.3,0-2.5-0.1-3.8-0.2l-4.8,8.57c3.58,1.55,7.54,2.41,11.69,2.41c1.4,0,2.8-0.1,4.1-0.3l12.78,23.68
	c-0.27,13.02-3.47,53.58-4.16,62.12c-9.29-0.59-19.09-1.01-29.26-1.23c-0.66-0.01-1.33-0.02-2.01-0.04
	c-2.02-0.03-4.06-0.06-6.12-0.08l-4.3-72.26l17.68-31.56c2.6,0.5,5.3,0.8,8.09,0.8c22.18,0,40.06-17.98,40.06-40.06
	c0-5.59-1.2-10.98-3.3-15.88c3.3-4.79,5.2-10.59,5.2-16.88c0-16.48-13.39-29.86-29.87-29.86c-4.69,0-9.09,1-13.08,2.99
	C155.27,10.98,143.99,2,131,2c-12.68,0-22.97,8.48-25.97,19.46c-2.6-0.99-5.39-1.49-8.39-1.49c-13.39,0-24.17,10.88-24.17,24.17
	c0,5.59,1.89,10.78,5.09,14.88c-5.59,5.89-8.99,13.79-8.99,22.58c0,18.17,14.68,32.86,32.86,32.86c1.6,0,3.1-0.1,4.6-0.3
	l14.28,26.46c-0.35,14.1-3.72,70.24-4.59,84.5c-1.35,0.02-2.7,0.05-4.04,0.07v0.06c-9.39,0.23-18.46,0.63-27.08,1.18
	c-0.73-9.13-3.88-49.04-4.14-61.83l12.78-23.67c1.3,0.19,2.7,0.3,4.1,0.3c4.56,0,8.88-1.04,12.71-2.9l-8.62-15.88
	c-22.57,0-40.85-18.38-40.85-40.85c0-8.39,2.5-16.39,7.19-23.18c-2.29-4.39-3.39-9.29-3.39-14.28c0-0.74,0.03-1.48,0.07-2.21
	c-8.89,2.08-15.91,8.7-18.05,17.09c-3.6-1.8-7.49-2.69-11.79-2.69c-14.78,0-26.77,11.98-26.77,26.76c0,5.3,1.7,10.49,4.7,14.79
	c-1.9,4.39-2.9,9.19-2.9,14.18c0,19.78,16.08,35.86,35.86,35.86c2.5,0,4.89-0.3,7.29-0.7l15.88,28.27l-3.97,52.58
	C27.08,231.89,1.85,238.92,1.85,247h256C257.85,238.91,232.65,231.89,195.02,228.07z M68.87,162.7l-9.49-17.48
	c3.5-1.5,6.79-3.5,9.59-5.99c0.1-0.1,0.2-0.1,0.3-0.2C69.17,142.82,68.97,157.01,68.87,162.7z M79.96,137.33h0.3
	c1.9,1,3.99,1.8,6.19,2.3l-6.29,12.58C80.06,148.71,79.96,139.53,79.96,137.33z M120.22,126.68l-7-14c2.4-0.6,4.8-1.5,6.9-2.6h0.3
	C120.42,112.48,120.32,122.78,120.22,126.68z M132.42,111.98c0.2,0.1,0.3,0.1,0.4,0.2c3.2,2.8,6.8,5,10.7,6.7l-10.6,19.5
	C132.72,131.98,132.62,116.08,132.42,111.98z M179.54,152.21l-6.29-12.58c2.2-0.5,4.29-1.3,6.19-2.3h0.3
	C179.64,139.53,179.64,148.71,179.54,152.21z M190.43,139.03c0.1,0.1,0.2,0.1,0.3,0.2c2.8,2.49,6.09,4.49,9.59,5.99l-9.49,17.48
	C190.73,157.01,190.53,142.82,190.43,139.03z"/>
</svg>