<?xml version="1.0" encoding="utf-8"?>
<!-- Generator: Adobe Illustrator 24.1.1, SVG Export Plug-In . SVG Version: 6.00 Build 0)  -->
<svg version="1.1" id="Layer_1" xmlns="http://www.w3.org/2000/svg" xmlns:xlink="http://www.w3.org/1999/xlink" x="0px" y="0px"
	 viewBox="0 0 512 512" style="enable-background:new 0 0 512 512;" xml:space="preserve">
<style type="text/css">
	.st0{fill:#231F20;}
</style>
<g>
	<path class="st0" d="M510.9,444.2l0.1-0.1l-44.3-76.7h17.4v-0.1c3.6,0,6.6-2.9,6.6-6.6c0-1.1-0.4-2.1-0.8-3.1l0.1-0.1l-40.9-70.9
		h10v-0.1c2.6,0,4.7-2.1,4.7-4.7c0-0.8-0.3-1.5-0.6-2.2l0.1-0.1l-59.6-103.2l-0.1,0c-1.3-2.7-4-4.6-7.2-4.6c-3.2,0-5.9,1.9-7.2,4.6
		l0,0l-59.6,103.2l0,0c-0.4,0.7-0.6,1.4-0.6,2.2c0,2.6,2.1,4.7,4.7,4.7v0.1h10.1l-40.9,70.9l0,0c-0.5,0.9-0.9,2-0.9,3.1
		c0,3.6,2.9,6.6,6.6,6.6v0.1h17.6l-12.8,22.1l-51-88.4H287v-0.1c5.1,0,9.3-4.2,9.3-9.3c0-1.6-0.4-3-1.1-4.4l0.1-0.1l-57.8-100h14.1
		v-0.1c3.7,0,6.6-3,6.6-6.6c0-1.1-0.4-2.1-0.9-3.1l0.1-0.1L173.4,32l0,0c-1.9-3.8-5.7-6.4-10.2-6.4c-4.6,0-8.6,2.7-10.4,6.7
		L68.9,177.5l0,0c-0.5,0.9-0.9,2-0.9,3.1c0,3.7,3,6.6,6.6,6.6v0.1h14.2l-57.1,98.9c-1.2,1.6-1.9,3.5-1.9,5.6c0,5.1,4.2,9.3,9.3,9.3
		v0.1H64L2.3,407.9c-1.5,1.9-2.3,4.3-2.3,6.9c0,6.3,5.1,11.4,11.4,11.4v0.1h120.2v51.2c0,5,4,9,9,9h44.9c5,0,9-4,9-9v-51.2h97.9
		L282,444.2l0,0c-0.6,1.1-1.1,2.4-1.1,3.8c0,4.4,3.6,8.1,8,8.1v0.1h85.2v23.9c0,3.5,2.8,6.4,6.4,6.4h31.8c3.5,0,6.4-2.8,6.4-6.4
		v-23.9h85.4V456c4.4,0,8.1-3.6,8.1-8.1C512,446.6,511.6,445.4,510.9,444.2z"/>
</g>
</svg>
